<svg xmlns="http://www.w3.org/2000/svg" viewBox="0 0 280 100" width="220" height="100">
    <defs>
        <style>
            .vivid-letter { fill: #ffffff; }
            .vivid-dot {
                fill: #2ecc71;
                transition: filter 0.3s ease;
            }
            svg:hover .vivid-dot {
                filter: drop-shadow(0 0 5px #2ecc71);
            }
        </style>
        <filter id="node-glow">
            <feGaussianBlur stdDeviation="3" result="blur" />
            <feComposite in="SourceGraphic" in2="blur" operator="over" />
        </filter>
    </defs>

    <g transform="translate(-40, -45)">
        <path d="M50 50 L100 140" stroke="#A5D6A7" stroke-width="15" stroke-linecap="round" fill="none" />
        <path d="M100 140 L150 50" stroke="#B3E5FC" stroke-width="15" stroke-linecap="round" fill="none" stroke-dasharray="2 24"/>
        <circle cx="100" cy="140" r="15" fill="#ff4d4d" filter="url(#node-glow)" />
        <circle cx="150" cy="50" r="15" fill="#00ff88" filter="url(#node-glow)" />

        <g id="letters-group" transform="translate(175, 75)">
            <g id="letter-i">
                <rect class="vivid-letter" x="0" y="20" width="12" height="45" rx="2" />
                <circle class="vivid-dot" cx="6" cy="6" r="7" />
            </g>

            <g id="letter-v" transform="translate(25, 20)">
                <path class="vivid-letter" d="M0,0 L14,45 L18,45 L32,0 L20,0 L16,33 L12,0 Z" />
            </g>

            <g id="letter-i-2" transform="translate(70, 0)">
                <rect class="vivid-letter" x="0" y="20" width="12" height="45" rx="2" />
                <circle class="vivid-dot" cx="6" cy="6" r="7" />
            </g>

            <g id="letter-d" transform="translate(95, 0)">
                <rect class="vivid-letter" x="30" y="0" width="12" height="65" rx="2" />
                <path class="vivid-letter" d="M32,65 C12,65 0,53 0,42 C0,31 12,20 32,20 L32,32 C18,32 12,36 12,42 C12,48 18,53 32,53 Z" />
            </g>
        </g>
    </g>
</svg>
